<?xml version="1.0" standalone="no"?>
<!DOCTYPE svg PUBLIC "-//W3C//DTD SVG 20010904//EN"
 "http://www.w3.org/TR/2001/REC-SVG-20010904/DTD/svg10.dtd">
<svg version="1.0" xmlns="http://www.w3.org/2000/svg"
 width="512.000000pt" height="512.000000pt" viewBox="0 0 512.000000 512.000000"
 preserveAspectRatio="xMidYMid meet">
<metadata>
Created by potrace 1.11, written by Peter Selinger 2001-2013
</metadata>
<g transform="translate(0.000000,512.000000) scale(0.100000,-0.100000)"
fill="#000000" stroke="none">
<path d="M1283 4771 c-9 -6 -63 -88 -63 -94 0 -3 -30 -56 -66 -118 -37 -63
-76 -130 -87 -149 -10 -19 -79 -138 -152 -265 -128 -222 -165 -287 -189 -330
-6 -11 -24 -39 -39 -62 -15 -24 -27 -44 -27 -46 0 -2 -64 -114 -141 -248 -78
-134 -152 -262 -164 -284 -13 -22 -70 -121 -127 -220 -57 -99 -107 -187 -111
-195 -4 -8 -13 -24 -20 -35 -68 -112 -90 -152 -89 -166 0 -13 65 -132 102
-189 5 -8 17 -28 26 -45 9 -16 118 -205 242 -420 124 -214 236 -410 250 -435
14 -25 36 -61 49 -80 12 -19 23 -39 23 -43 0 -5 8 -21 19 -35 16 -23 162 -275
239 -412 22 -39 185 -321 260 -450 15 -25 34 -58 43 -75 l16 -30 934 -1 934
-1 0 -28 c1 -15 -4 -65 -10 -111 l-12 -84 606 2 c598 3 606 3 607 23 2 46 4
46 46 17 147 -98 390 -68 509 64 23 26 72 101 75 114 0 3 6 17 12 31 60 145
64 458 8 622 -53 156 -159 253 -305 281 -115 22 -223 4 -302 -51 l-51 -35 28
49 c15 26 50 86 77 133 63 108 102 175 220 380 52 91 104 181 116 200 11 19
34 60 51 90 17 30 39 70 50 88 11 18 72 123 135 233 l115 200 -74 127 c-40 70
-83 143 -93 162 -11 19 -71 123 -133 230 -62 107 -122 211 -133 230 -10 19
-41 72 -68 118 -27 45 -49 85 -49 88 0 3 -8 17 -19 32 -16 24 -164 279 -233
402 -14 25 -40 70 -58 100 -18 30 -42 71 -53 90 -10 19 -98 170 -193 336
l-174 301 -1275 0 c-700 0 -1278 -3 -1282 -6z m2897 -3892 c-7 -35 -12 -114
-12 -176 l-1 -111 -56 -4 c-31 -2 -72 -2 -92 0 l-36 3 88 152 c49 84 95 164
101 179 18 40 21 27 8 -43z"/>
</g>
</svg>
